<svg width="247" height="216" viewBox="0 0 247 216" fill="none" xmlns="http://www.w3.org/2000/svg">
<path d="M161.268 35.3853H222.902V50.5254H161.268V35.3853ZM99.5106 95.2887C113.135 88.6884 120.272 78.6471 120.272 63.1317C120.272 32.4449 97.7187 25 71.6748 25H0V179.028H73.6829C101.302 179.028 127.223 165.577 127.223 134.296C127.223 114.965 118.202 100.669 99.5106 95.2887V95.2887ZM33.4276 51.2762H64.7854C76.865 51.2762 87.7089 54.6858 87.7089 68.8874C87.7089 81.9629 79.2748 87.2182 67.3187 87.2182H33.4276V51.2762ZM69.1106 152.877H33.3968V110.46H69.8211C84.5268 110.46 93.826 116.685 93.826 132.451C93.826 147.966 82.735 152.877 69.1106 152.877V152.877ZM247 124.881C247 91.8791 227.938 64.3829 193.46 64.3829C159.94 64.3829 137.14 89.9396 137.14 123.442C137.14 158.164 158.735 182 193.46 182C219.751 182 236.774 170.019 244.961 144.463H218.299C215.395 154.003 203.593 159.008 194.418 159.008C176.685 159.008 167.416 148.498 167.416 130.636H246.784C246.876 128.791 247 126.851 247 124.881V124.881ZM167.416 111.305C168.374 96.6338 178.044 87.4684 192.502 87.4684C207.702 87.4684 215.302 96.5087 216.631 111.305H167.416Z" fill="#CFD2D8"/>
</svg>
