<svg width="217" height="211" viewBox="0 0 217 211" fill="none" xmlns="http://www.w3.org/2000/svg">
<path fill-rule="evenodd" clip-rule="evenodd" d="M108.5 0C48.5538 0 0 48.4054 0 108.168C0 156.033 31.0581 196.461 74.1869 210.793C79.6119 211.74 81.6463 208.495 81.6463 205.655C81.6463 203.086 81.5106 194.568 81.5106 185.509C54.25 190.512 47.1975 178.884 45.0275 172.799C43.8069 169.689 38.5175 160.089 33.9063 157.52C30.1088 155.492 24.6837 150.489 33.7706 150.354C42.315 150.219 48.4181 158.196 50.4525 161.441C60.2175 177.802 75.8144 173.205 82.0531 170.365C83.0025 163.334 85.8506 158.602 88.97 155.898C64.8288 153.194 39.6025 143.864 39.6025 102.49C39.6025 90.7263 43.8069 80.9912 50.7238 73.4194C49.6388 70.7152 45.8413 59.6279 51.8088 44.7547C51.8088 44.7547 60.8956 41.9153 81.6463 55.842C90.3263 53.4082 99.5488 52.1913 108.771 52.1913C117.994 52.1913 127.216 53.4082 135.896 55.842C156.647 41.7801 165.734 44.7547 165.734 44.7547C171.701 59.6279 167.904 70.7152 166.819 73.4194C173.736 80.9912 177.94 90.5911 177.94 102.49C177.94 143.999 152.578 153.194 128.437 155.898C132.37 159.278 135.761 165.768 135.761 175.909C135.761 190.377 135.625 202.005 135.625 205.655C135.625 208.495 137.659 211.875 143.084 210.793C164.623 203.544 183.339 189.743 196.599 171.333C209.858 152.924 216.994 130.832 217 108.168C217 48.4054 168.446 0 108.5 0Z" fill="#CFD2D8"/>
</svg>
