<svg width="216" height="216" viewBox="0 0 216 216" fill="none" xmlns="http://www.w3.org/2000/svg">
<path d="M107.971 52.5856C77.3058 52.5856 52.5576 77.3343 52.5576 108C52.5576 138.666 77.3058 163.414 107.971 163.414C138.636 163.414 163.384 138.666 163.384 108C163.384 77.3343 138.636 52.5856 107.971 52.5856ZM107.971 144.015C88.1399 144.015 71.9563 127.831 71.9563 108C71.9563 88.1686 88.1399 71.9847 107.971 71.9847C127.802 71.9847 143.986 88.1686 143.986 108C143.986 127.831 127.802 144.015 107.971 144.015ZM165.654 37.4013C158.494 37.4013 152.712 43.1832 152.712 50.343C152.712 57.5029 158.494 63.2848 165.654 63.2848C172.814 63.2848 178.595 57.5299 178.595 50.343C178.598 48.6429 178.264 46.9591 177.615 45.3879C176.965 43.8168 176.012 42.3893 174.81 41.1871C173.607 39.9849 172.18 39.0317 170.609 38.3821C169.038 37.7325 167.354 37.3992 165.654 37.4013V37.4013ZM215.988 108C215.988 93.0859 216.123 78.3069 215.285 63.4199C214.448 46.1282 210.503 30.7818 197.859 18.1373C185.188 5.46572 169.869 1.54808 152.577 0.710511C137.663 -0.127055 122.885 0.00803642 107.998 0.00803642C93.0842 0.00803642 78.3055 -0.127055 63.4187 0.710511C46.1273 1.54808 30.7813 5.49274 18.1369 18.1373C5.46562 30.8088 1.54805 46.1282 0.710497 63.4199C-0.127053 78.334 0.00803627 93.1129 0.00803627 108C0.00803627 122.887 -0.127053 137.693 0.710497 152.58C1.54805 169.872 5.49264 185.218 18.1369 197.863C30.8083 210.534 46.1273 214.452 63.4187 215.289C78.3325 216.127 93.1112 215.992 107.998 215.992C122.912 215.992 137.69 216.127 152.577 215.289C169.869 214.452 185.215 210.507 197.859 197.863C210.53 185.191 214.448 169.872 215.285 152.58C216.15 137.693 215.988 122.914 215.988 108V108ZM192.212 171.709C190.24 176.626 187.862 180.301 184.053 184.083C180.243 187.893 176.596 190.271 171.679 192.243C157.467 197.89 123.722 196.62 107.971 196.62C92.2196 196.62 58.4474 197.89 44.2361 192.27C39.3189 190.298 35.6445 187.92 31.862 184.11C28.0525 180.301 25.6749 176.653 23.7026 171.736C18.0829 157.497 19.3527 123.752 19.3527 108C19.3527 92.2484 18.0829 58.4755 23.7026 44.2639C25.6749 39.3466 28.0525 35.6721 31.862 31.8896C35.6715 28.107 39.3189 25.7024 44.2361 23.7301C58.4474 18.1103 92.2196 19.3801 107.971 19.3801C123.722 19.3801 157.495 18.1103 171.706 23.7301C176.623 25.7024 180.297 28.08 184.08 31.8896C187.889 35.6992 190.267 39.3466 192.239 44.2639C197.859 58.4755 196.589 92.2484 196.589 108C196.589 123.752 197.859 157.497 192.212 171.709Z" fill="#CFD2D8"/>
</svg>
